<svg xmlns="http://www.w3.org/2000/svg" xmlns:xlink="http://www.w3.org/1999/xlink" width="500" zoomAndPan="magnify" viewBox="0 0 375 374.999991" height="500" preserveAspectRatio="xMidYMid meet" version="1.0"><defs><g/><clipPath id="id1"><path d="M 46.574219 46.574219 L 328.574219 46.574219 L 328.574219 328.574219 L 46.574219 328.574219 Z M 46.574219 46.574219 " clip-rule="nonzero"/></clipPath><clipPath id="id2"><path d="M 159.25 83 L 205 83 L 205 159.890625 L 159.25 159.890625 Z M 159.25 83 " clip-rule="nonzero"/></clipPath><clipPath id="id3"><path d="M 161 83 L 206 83 L 206 159.890625 L 161 159.890625 Z M 161 83 " clip-rule="nonzero"/></clipPath><clipPath id="id4"><path d="M 198 74 L 243.25 74 L 243.25 109 L 198 109 Z M 198 74 " clip-rule="nonzero"/></clipPath></defs><g clip-path="url(#id1)"><path fill="#ffffff" d="M 187.574219 46.574219 C 109.699219 46.574219 46.574219 109.699219 46.574219 187.574219 C 46.574219 265.445312 109.699219 328.574219 187.574219 328.574219 C 265.445312 328.574219 328.574219 265.445312 328.574219 187.574219 C 328.574219 109.699219 265.445312 46.574219 187.574219 46.574219 " fill-opacity="1" fill-rule="nonzero"/></g><g clip-path="url(#id2)"><path fill="#f07167" d="M 203.957031 149.945312 C 203.957031 155.441406 198.914062 159.898438 192.695312 159.898438 C 192.695312 159.898438 170.738281 159.898438 170.703125 159.898438 C 163.972656 159.898438 159.429688 153.785156 159.316406 147.449219 C 159.246094 143.371094 159.410156 139.238281 159.40625 135.152344 C 159.40625 129.441406 159.4375 123.734375 159.429688 118.027344 C 159.421875 112.804688 159.445312 107.585938 159.4375 102.363281 C 159.4375 99.769531 159.449219 97.179688 159.445312 94.589844 C 159.445312 94.503906 159.445312 94.421875 159.445312 94.335938 C 159.445312 90.597656 161.90625 87.1875 165.214844 85.679688 C 171.277344 82.914062 179.105469 84.375 185.585938 84.335938 C 189.484375 84.316406 193.820312 84.003906 197.515625 85.5 C 203.074219 87.75 204.226562 93.925781 204 99.183594 C 203.535156 109.902344 203.691406 120.648438 203.808594 131.375 C 203.839844 134.535156 203.882812 137.695312 203.929688 140.855469 C 203.972656 143.886719 203.957031 146.914062 203.957031 149.945312 Z M 203.957031 149.945312 " fill-opacity="1" fill-rule="nonzero"/></g><g clip-path="url(#id3)"><path fill="#ffa295" d="M 205.871094 149.945312 C 205.871094 155.441406 200.832031 159.898438 194.613281 159.898438 C 194.613281 159.898438 172.65625 159.898438 172.621094 159.898438 C 165.890625 159.898438 161.347656 153.785156 161.234375 147.449219 C 161.160156 143.371094 161.324219 139.238281 161.324219 135.152344 C 161.324219 129.441406 161.351562 123.734375 161.347656 118.027344 C 161.339844 112.804688 161.363281 107.585938 161.355469 102.363281 C 161.351562 99.769531 161.363281 97.179688 161.359375 94.589844 C 161.359375 94.503906 161.359375 94.421875 161.359375 94.335938 C 161.359375 90.597656 163.820312 87.1875 167.132812 85.679688 C 173.195312 82.914062 181.023438 84.375 187.5 84.335938 C 191.402344 84.316406 195.734375 84.003906 199.433594 85.5 C 204.992188 87.75 206.140625 93.925781 205.914062 99.183594 C 205.453125 109.902344 205.609375 120.648438 205.722656 131.375 C 205.757812 134.535156 205.800781 137.695312 205.847656 140.855469 C 205.886719 143.886719 205.871094 146.914062 205.871094 149.945312 Z M 205.871094 149.945312 " fill-opacity="1" fill-rule="nonzero"/></g><path fill="#ffffff" d="M 202.226562 145.265625 C 202.160156 146.042969 202.046875 146.804688 201.84375 147.542969 C 199.796875 154.988281 188.53125 153.796875 182.71875 153.777344 C 177.847656 153.761719 170.320312 154.386719 167.082031 149.867188 C 164.878906 146.78125 165.265625 143.0625 165.316406 139.496094 C 165.367188 135.734375 165.308594 131.964844 165.328125 128.199219 C 165.378906 118.332031 165.015625 108.472656 165.335938 98.609375 C 165.46875 94.492188 167.371094 89.960938 171.664062 88.730469 C 175.574219 87.613281 179.710938 88.199219 183.703125 88.28125 C 188.167969 88.371094 192.765625 87.691406 197.078125 89.238281 C 200.839844 90.582031 202.203125 93.957031 202.515625 97.621094 C 202.945312 102.675781 202.761719 107.808594 202.589844 112.867188 C 202.378906 119.257812 202.304688 125.65625 202.347656 132.046875 C 202.371094 135.085938 202.390625 138.125 202.332031 141.164062 C 202.308594 142.496094 202.34375 143.898438 202.226562 145.265625 Z M 202.226562 145.265625 " fill-opacity="1" fill-rule="nonzero"/><path fill="#00afb9" d="M 169.183594 101.742188 C 168.558594 102.226562 168.183594 103.023438 168.160156 104.269531 C 168.113281 106.53125 168.644531 108.746094 168.664062 110.992188 C 168.691406 114.105469 168.648438 117.222656 168.65625 120.339844 C 168.671875 126.050781 168.671875 131.761719 168.660156 137.472656 C 168.65625 139.425781 168.570312 141.355469 170.785156 142.011719 C 173.644531 142.863281 176.957031 141.878906 179.863281 141.875 C 183.617188 141.875 187.371094 141.875 191.125 141.878906 C 192.03125 141.878906 193.003906 142.0625 193.925781 142.089844 C 195.152344 142.128906 196.609375 142.742188 197.804688 142.257812 C 199.367188 141.621094 199.105469 139.683594 199.121094 138.300781 C 199.148438 135.785156 198.996094 133.269531 199 130.75 C 199.011719 124.398438 198.992188 118.046875 198.988281 111.691406 C 198.988281 108.808594 199.347656 105.917969 199.132812 103.03125 C 198.960938 100.699219 197.449219 100.824219 195.316406 100.785156 C 192.519531 100.734375 189.734375 100.949219 186.9375 100.980469 C 183.191406 101.027344 179.441406 101.042969 175.691406 101.074219 C 174.640625 101.085938 173.582031 101.113281 172.527344 101.066406 C 171.144531 101.003906 169.96875 101.136719 169.183594 101.742188 Z M 169.183594 101.742188 " fill-opacity="1" fill-rule="nonzero"/><path fill="#00afb9" d="M 192.785156 148.710938 C 192.996094 151.175781 189.71875 151.234375 188.03125 151.214844 C 185.09375 151.179688 182.164062 151.003906 179.21875 150.988281 C 178.539062 150.988281 177.859375 150.980469 177.183594 150.980469 C 175.929688 150.980469 174.914062 149.96875 174.914062 148.714844 C 174.914062 145.339844 179.808594 146.441406 181.835938 146.445312 C 184.097656 146.449219 186.363281 146.433594 188.625 146.441406 C 190.066406 146.449219 192.152344 146.355469 192.65625 148.074219 C 192.726562 148.304688 192.765625 148.515625 192.785156 148.710938 Z M 192.785156 148.710938 " fill-opacity="1" fill-rule="nonzero"/><path fill="#ffffff" d="M 191.660156 148.722656 C 191.832031 150.503906 189.882812 150.847656 188.53125 150.921875 C 186.210938 151.050781 183.839844 150.828125 181.519531 150.769531 C 180.128906 150.730469 177.632812 151.1875 176.550781 150.101562 C 175.894531 149.445312 175.765625 148.304688 176.316406 147.550781 C 176.878906 146.78125 177.976562 146.609375 178.863281 146.566406 C 180.503906 146.484375 182.144531 146.675781 183.785156 146.699219 C 185.339844 146.722656 186.894531 146.65625 188.449219 146.679688 C 189.789062 146.695312 191.46875 147.078125 191.65625 148.679688 C 191.65625 148.695312 191.65625 148.707031 191.660156 148.722656 Z M 191.660156 148.722656 " fill-opacity="1" fill-rule="nonzero"/><path fill="#00afb9" d="M 186.109375 94.632812 C 186.109375 95.863281 185.113281 96.855469 183.886719 96.855469 C 182.65625 96.855469 181.664062 95.863281 181.664062 94.632812 C 181.664062 93.410156 182.65625 92.414062 183.886719 92.414062 C 185.113281 92.414062 186.109375 93.410156 186.109375 94.632812 Z M 186.109375 94.632812 " fill-opacity="1" fill-rule="nonzero"/><g clip-path="url(#id4)"><path fill="#00afb9" d="M 200.839844 78.503906 C 196.300781 82.679688 199.082031 91.941406 199.082031 97.234375 C 199.082031 99.0625 199.082031 100.894531 199.082031 102.722656 C 199.082031 104.140625 198.109375 107.394531 200.058594 107.917969 C 203.207031 108.757812 206.210938 103.882812 208.601562 102.582031 C 215.472656 98.84375 224.039062 101.425781 231.382812 101.664062 C 234.285156 101.757812 238.691406 100.164062 240.695312 98.050781 C 242.980469 95.640625 243.242188 91.980469 243 88.839844 C 242.667969 84.578125 239.984375 79.34375 236.410156 76.972656 C 232.828125 74.589844 228.261719 74.167969 224.074219 74.085938 C 216.925781 73.949219 207.617188 73.648438 201.507812 77.964844 C 201.269531 78.132812 201.046875 78.3125 200.839844 78.503906 Z M 200.839844 78.503906 " fill-opacity="1" fill-rule="nonzero"/></g><path fill="#ffffff" d="M 228.957031 83.0625 L 210.929688 83.0625 C 210.476562 83.0625 210.109375 82.695312 210.109375 82.242188 C 210.109375 81.792969 210.476562 81.425781 210.929688 81.425781 L 228.957031 81.425781 C 229.410156 81.425781 229.777344 81.792969 229.777344 82.242188 C 229.777344 82.695312 229.410156 83.0625 228.957031 83.0625 Z M 228.957031 83.0625 " fill-opacity="1" fill-rule="nonzero"/><path fill="#ffffff" d="M 226.683594 88.011719 L 213.851562 88.011719 C 213.398438 88.011719 213.03125 87.644531 213.03125 87.191406 C 213.03125 86.738281 213.398438 86.371094 213.851562 86.371094 L 226.683594 86.371094 C 227.136719 86.371094 227.503906 86.738281 227.503906 87.191406 C 227.503906 87.644531 227.136719 88.011719 226.683594 88.011719 Z M 226.683594 88.011719 " fill-opacity="1" fill-rule="nonzero"/><g fill="#1f7980" fill-opacity="1"><g transform="translate(75.585411, 205.874986)"><g><path d="M 41.738281 -32.210938 C 41.738281 -34.316406 38.851562 -35.371094 36.195312 -35.371094 C 33.402344 -35.371094 30.011719 -34.363281 27.71875 -32.4375 C 22.496094 -33.402344 15.851562 -35.964844 10.949219 -35.964844 C 4.949219 -35.964844 1.421875 -32.941406 1.421875 -27.8125 C 1.421875 -23.640625 4.351562 -21.121094 8.613281 -21.121094 C 10.261719 -21.121094 12.050781 -21.535156 13.652344 -22.265625 C 14.019531 -22.449219 14.203125 -22.769531 14.203125 -23.136719 C 14.203125 -23.503906 13.929688 -24.101562 13.285156 -24.101562 C 13.105469 -24.101562 12.964844 -24.054688 12.828125 -24.007812 C 11.5 -23.414062 10.035156 -23.046875 8.660156 -23.046875 C 5.5 -23.046875 3.390625 -24.605469 3.34375 -27.8125 C 3.34375 -31.707031 6.140625 -33.996094 10.859375 -33.996094 C 16.035156 -33.996094 22.039062 -31.660156 26.070312 -30.789062 C 25.796875 -30.378906 25.472656 -29.964844 25.246094 -29.550781 C 23.320312 -26.253906 21.71875 -21.214844 20.570312 -17.503906 C 17.363281 -7.925781 15.714844 0.960938 7.925781 0.871094 C 4.582031 0.871094 1.925781 -1.558594 1.925781 -5.453125 C 1.925781 -9.621094 5.863281 -13.242188 9.898438 -13.242188 C 10.445312 -13.242188 10.859375 -13.652344 10.859375 -14.203125 C 10.859375 -14.753906 10.445312 -15.164062 9.898438 -15.164062 C 4.855469 -15.164062 0 -10.859375 0 -5.453125 C 0 -0.734375 3.253906 2.792969 7.925781 2.792969 C 16.035156 2.933594 18.371094 -3.574219 22.40625 -16.90625 C 23.550781 -20.527344 25.109375 -25.519531 26.894531 -28.589844 C 27.308594 -29.230469 27.765625 -29.828125 28.316406 -30.378906 C 31.203125 -29.828125 34.042969 -29.460938 36.289062 -29.460938 C 39.496094 -29.460938 41.648438 -30.148438 41.738281 -32.210938 Z M 36.289062 -31.386719 C 34.777344 -31.386719 32.667969 -31.613281 30.46875 -31.980469 C 32.027344 -32.851562 34.363281 -33.445312 36.148438 -33.445312 C 37.480469 -33.445312 39.769531 -32.941406 39.769531 -32.253906 C 39.769531 -31.613281 38.441406 -31.386719 36.289062 -31.386719 Z M 36.289062 -31.386719 "/></g></g></g><g fill="#1f7980" fill-opacity="1"><g transform="translate(103.940904, 205.874986)"><g><path d="M 20.527344 -10.90625 C 20.390625 -10.949219 20.25 -10.996094 20.113281 -10.996094 C 19.746094 -10.996094 19.425781 -10.765625 19.242188 -10.402344 L 19.199219 -10.261719 C 17.6875 -6.871094 15.484375 -1.925781 12.644531 -1.925781 C 11.683594 -1.925781 11.269531 -2.472656 11.269531 -3.847656 C 11.269531 -5.863281 12.78125 -9.851562 14.433594 -14.476562 L 16.722656 -20.617188 C 16.953125 -21.167969 16.585938 -21.902344 15.851562 -21.902344 C 15.441406 -21.902344 15.074219 -21.671875 14.9375 -21.304688 C 14.707031 -20.710938 14.433594 -20.023438 14.15625 -19.242188 C 13.332031 -20.894531 11.914062 -21.671875 9.988281 -21.671875 C 4.488281 -21.671875 -0.136719 -10.949219 -0.136719 -4.949219 C -0.136719 -2.199219 1.054688 0 3.621094 0 C 5.589844 0 7.515625 -1.28125 9.347656 -3.847656 C 9.347656 -1.605469 10.445312 0 12.644531 0 C 16.769531 0 19.242188 -5.636719 20.984375 -9.484375 L 21.03125 -9.621094 C 21.074219 -9.757812 21.121094 -9.898438 21.121094 -10.035156 C 21.121094 -10.402344 20.894531 -10.722656 20.527344 -10.90625 Z M 3.574219 -1.925781 C 2.199219 -1.925781 1.785156 -3.253906 1.785156 -5.269531 C 1.878906 -9.804688 5.773438 -19.65625 9.988281 -19.746094 C 11.636719 -19.746094 12.828125 -18.511719 12.921875 -16.402344 L 11.820312 -13.46875 C 9.988281 -8.796875 7.285156 -1.925781 3.574219 -1.925781 Z M 3.574219 -1.925781 "/></g></g></g><g fill="#1f7980" fill-opacity="1"><g transform="translate(122.401745, 205.874986)"><g><path d="M 15.121094 -8.109375 C 15.074219 -11.226562 13.835938 -12.828125 11.453125 -17.226562 C 12.875 -18.832031 14.019531 -20.847656 14.019531 -22.679688 C 13.929688 -24.007812 13.148438 -25.0625 11.820312 -25.0625 C 9.941406 -25.0625 8.476562 -23.046875 8.476562 -20.664062 C 8.476562 -19.609375 8.75 -18.601562 9.164062 -17.640625 C 8.613281 -17.089844 8.15625 -16.585938 7.605469 -15.945312 C 7.46875 -15.761719 7.375 -15.53125 7.375 -15.347656 C 7.375 -15.074219 7.46875 -14.753906 7.699219 -14.570312 C 7.878906 -14.386719 8.15625 -14.339844 8.382812 -14.339844 C 8.660156 -14.339844 8.933594 -14.476562 9.117188 -14.707031 C 9.394531 -15.074219 9.714844 -15.441406 10.035156 -15.761719 C 12.460938 -11.5 13.148438 -10.171875 13.195312 -8.15625 C 13.105469 -4.351562 10.445312 -1.925781 6.734375 -1.925781 C 4.078125 -1.925781 1.742188 -3.894531 1.742188 -6.6875 C 1.925781 -9.484375 3.574219 -11.59375 6.09375 -11.59375 C 7.285156 -11.59375 8.429688 -10.445312 8.523438 -8.886719 C 8.523438 -8.339844 8.933594 -7.925781 9.484375 -7.925781 C 10.035156 -7.925781 10.445312 -8.339844 10.445312 -8.886719 C 10.355469 -11.410156 8.429688 -13.515625 6.046875 -13.515625 C 2.382812 -13.515625 0.0898438 -10.8125 -0.183594 -6.6875 C -0.183594 -2.976562 2.933594 0 6.734375 0 C 11.363281 0 15.027344 -3.160156 15.121094 -8.109375 Z M 10.628906 -19.242188 C 10.492188 -19.746094 10.402344 -20.207031 10.402344 -20.710938 C 10.402344 -21.351562 10.539062 -22.175781 11.085938 -22.726562 C 11.546875 -23.183594 12.050781 -23.320312 12.050781 -22.679688 C 12.050781 -21.671875 11.363281 -20.25 10.628906 -19.242188 Z M 10.628906 -19.242188 "/></g></g></g><g fill="#1f7980" fill-opacity="1"><g transform="translate(140.038039, 205.874986)"><g><path d="M -0.6875 -0.6875 C 2.382812 -8.980469 5.132812 -16.816406 9.117188 -28.039062 C 9.347656 -28.636719 8.886719 -29.324219 8.15625 -29.324219 C 7.789062 -29.324219 7.421875 -29.09375 7.285156 -28.726562 C 6.917969 -27.671875 5.132812 -22.589844 -2.519531 -1.28125 C -2.703125 -0.777344 -2.429688 -0.230469 -1.925781 -0.046875 C -1.421875 0.0898438 -0.871094 -0.230469 -0.6875 -0.6875 Z M 20.160156 -10.90625 C 20.023438 -10.949219 19.886719 -10.996094 19.746094 -10.996094 C 19.378906 -10.996094 19.058594 -10.765625 18.875 -10.402344 C 17.136719 -6.460938 14.9375 -1.925781 12.234375 -1.925781 C 11.269531 -1.925781 10.765625 -2.792969 10.765625 -3.621094 C 10.765625 -4.671875 11.269531 -8.203125 11.269531 -9.253906 C 11.226562 -11.226562 10.628906 -12.78125 8.476562 -13.148438 L 16.128906 -20.113281 C 16.3125 -20.296875 16.449219 -20.527344 16.449219 -20.800781 C 16.449219 -21.167969 16.128906 -21.761719 15.441406 -21.761719 C 15.210938 -21.761719 15.074219 -21.761719 14.800781 -21.535156 C 8.707031 -15.945312 4.488281 -12.234375 3.894531 -11.636719 C 3.207031 -10.949219 3.4375 -9.941406 4.445312 -9.941406 C 5.316406 -9.941406 6.003906 -11.316406 7.332031 -11.316406 C 8.886719 -11.316406 9.300781 -10.445312 9.347656 -9.253906 C 9.394531 -8.429688 9.253906 -7.46875 9.117188 -6.550781 C 8.980469 -5.5 8.84375 -4.488281 8.84375 -3.480469 C 8.84375 -1.742188 10.125 0 12.234375 0 C 16.035156 0 18.464844 -4.71875 20.664062 -9.621094 C 20.710938 -9.757812 20.753906 -9.898438 20.753906 -10.035156 C 20.753906 -10.402344 20.527344 -10.765625 20.160156 -10.90625 Z M 20.160156 -10.90625 "/></g></g></g><g fill="#1f7980" fill-opacity="1"><g transform="translate(158.132417, 205.874986)"><g><path d="M 15.121094 -8.109375 C 15.074219 -11.226562 13.835938 -12.828125 11.453125 -17.226562 C 12.875 -18.832031 14.019531 -20.847656 14.019531 -22.679688 C 13.929688 -24.007812 13.148438 -25.0625 11.820312 -25.0625 C 9.941406 -25.0625 8.476562 -23.046875 8.476562 -20.664062 C 8.476562 -19.609375 8.75 -18.601562 9.164062 -17.640625 C 8.613281 -17.089844 8.15625 -16.585938 7.605469 -15.945312 C 7.46875 -15.761719 7.375 -15.53125 7.375 -15.347656 C 7.375 -15.074219 7.46875 -14.753906 7.699219 -14.570312 C 7.878906 -14.386719 8.15625 -14.339844 8.382812 -14.339844 C 8.660156 -14.339844 8.933594 -14.476562 9.117188 -14.707031 C 9.394531 -15.074219 9.714844 -15.441406 10.035156 -15.761719 C 12.460938 -11.5 13.148438 -10.171875 13.195312 -8.15625 C 13.105469 -4.351562 10.445312 -1.925781 6.734375 -1.925781 C 4.078125 -1.925781 1.742188 -3.894531 1.742188 -6.6875 C 1.925781 -9.484375 3.574219 -11.59375 6.09375 -11.59375 C 7.285156 -11.59375 8.429688 -10.445312 8.523438 -8.886719 C 8.523438 -8.339844 8.933594 -7.925781 9.484375 -7.925781 C 10.035156 -7.925781 10.445312 -8.339844 10.445312 -8.886719 C 10.355469 -11.410156 8.429688 -13.515625 6.046875 -13.515625 C 2.382812 -13.515625 0.0898438 -10.8125 -0.183594 -6.6875 C -0.183594 -2.976562 2.933594 0 6.734375 0 C 11.363281 0 15.027344 -3.160156 15.121094 -8.109375 Z M 10.628906 -19.242188 C 10.492188 -19.746094 10.402344 -20.207031 10.402344 -20.710938 C 10.402344 -21.351562 10.539062 -22.175781 11.085938 -22.726562 C 11.546875 -23.183594 12.050781 -23.320312 12.050781 -22.679688 C 12.050781 -21.671875 11.363281 -20.25 10.628906 -19.242188 Z M 10.628906 -19.242188 "/></g></g></g><g fill="#1f7980" fill-opacity="1"><g transform="translate(175.76871, 205.874986)"><g/></g></g><g fill="#1f7980" fill-opacity="1"><g transform="translate(189.511278, 205.874986)"><g><path d="M 40.503906 -32.851562 C 40.136719 -32.851562 39.769531 -32.621094 39.632812 -32.253906 C 39.496094 -31.933594 38.488281 -29.003906 37.25 -25.429688 C 36.058594 -22.128906 34.730469 -18.28125 33.722656 -15.394531 L 21.855469 -15.394531 L 22.40625 -17.179688 C 23.457031 -20.433594 24.742188 -24.511719 26.390625 -27.582031 C 27.078125 -29.003906 28.453125 -30.195312 29.917969 -31.019531 C 30.285156 -31.203125 30.46875 -31.523438 30.46875 -31.890625 C 30.46875 -32.253906 30.195312 -32.851562 29.507812 -32.851562 C 29.367188 -32.851562 29.1875 -32.804688 29.046875 -32.714844 C 28.039062 -32.164062 27.167969 -31.523438 26.117188 -30.515625 C 23.871094 -30.925781 21.855469 -31.566406 19.976562 -32.164062 C 16.859375 -33.125 14.019531 -33.996094 10.628906 -33.996094 C 6.597656 -33.996094 2.703125 -30.332031 2.703125 -25.886719 C 2.703125 -21.902344 5.453125 -19.199219 9.898438 -19.199219 C 11.546875 -19.199219 13.332031 -19.609375 14.9375 -20.34375 C 15.304688 -20.527344 15.484375 -20.847656 15.484375 -21.214844 C 15.484375 -21.578125 15.210938 -22.175781 14.570312 -22.175781 C 14.386719 -22.175781 14.25 -22.128906 14.113281 -22.085938 C 12.738281 -21.488281 11.269531 -21.121094 9.941406 -21.121094 C 6.828125 -21.121094 4.628906 -22.632812 4.628906 -26.023438 C 4.628906 -29.09375 7.605469 -32.070312 10.628906 -32.070312 C 13.699219 -32.070312 16.449219 -31.203125 19.378906 -30.285156 C 21.074219 -29.78125 22.863281 -29.230469 24.832031 -28.773438 L 24.695312 -28.5 C 22.910156 -25.246094 21.625 -21.074219 20.570312 -17.777344 L 19.792969 -15.394531 L 17.226562 -15.394531 C 16.675781 -15.394531 16.265625 -14.9375 16.265625 -14.386719 C 16.265625 -13.882812 16.675781 -13.425781 17.226562 -13.425781 L 19.152344 -13.425781 C 19.015625 -13.058594 18.875 -12.601562 18.738281 -12.1875 C 16.632812 -5.679688 14.570312 0.59375 7.972656 0.59375 C 4.03125 0.59375 1.925781 -2.0625 1.925781 -5.679688 C 1.925781 -10.125 5.820312 -13.46875 9.898438 -13.46875 C 10.445312 -13.46875 10.859375 -13.929688 10.859375 -14.476562 C 10.859375 -14.980469 10.445312 -15.441406 9.898438 -15.441406 C 4.8125 -15.347656 0 -11.269531 0 -5.726562 C 0 -1.054688 2.792969 2.519531 7.925781 2.519531 C 15.992188 2.519531 18.28125 -4.398438 20.617188 -11.59375 C 20.800781 -12.1875 20.984375 -12.78125 21.214844 -13.425781 L 33.035156 -13.425781 L 32.253906 -11.269531 C 29.414062 -3.804688 27.765625 0.871094 27.765625 3.621094 C 27.765625 6.964844 29.230469 9.53125 32.757812 9.621094 C 33.308594 9.621094 33.722656 9.164062 33.765625 8.660156 C 33.765625 8.109375 33.308594 7.652344 32.804688 7.652344 C 30.46875 7.652344 29.597656 5.910156 29.691406 3.621094 C 29.78125 1.238281 31.109375 -2.519531 34.089844 -10.628906 C 34.410156 -11.5 37.019531 -19.015625 39.035156 -24.789062 L 41.417969 -31.566406 C 41.648438 -32.164062 41.28125 -32.851562 40.503906 -32.851562 Z M 40.503906 -32.851562 "/></g></g></g><g fill="#1f7980" fill-opacity="1"><g transform="translate(226.662014, 205.874986)"><g><path d="M 16.585938 -10.90625 C 16.082031 -11.085938 15.53125 -10.859375 15.304688 -10.402344 C 12.738281 -4.488281 9.804688 -1.832031 6.046875 -1.925781 C 3.300781 -2.015625 1.832031 -3.621094 1.925781 -6.230469 C 1.96875 -7.191406 2.109375 -8.0625 2.429688 -9.253906 C 7.515625 -10.492188 14.339844 -13.425781 14.339844 -18.28125 C 14.339844 -20.480469 12.738281 -21.671875 10.445312 -21.671875 C 5.039062 -21.671875 0.273438 -12.140625 0 -6.277344 C -0.0898438 -2.519531 2.199219 0 6.003906 0 C 10.628906 0 14.113281 -3.023438 17.089844 -9.621094 C 17.136719 -9.757812 17.179688 -9.851562 17.179688 -9.988281 C 17.179688 -10.355469 16.953125 -10.722656 16.585938 -10.90625 Z M 3.160156 -11.453125 C 4.628906 -14.980469 7.285156 -19.746094 10.445312 -19.746094 C 11.453125 -19.746094 12.417969 -19.519531 12.417969 -18.28125 C 12.417969 -14.890625 6.964844 -12.644531 3.160156 -11.453125 Z M 3.160156 -11.453125 "/></g></g></g><g fill="#1f7980" fill-opacity="1"><g transform="translate(241.183329, 205.874986)"><g><path d="M 11.546875 -10.90625 C 11.410156 -10.949219 11.269531 -10.996094 11.132812 -10.996094 C 10.765625 -10.996094 10.402344 -10.765625 10.21875 -10.445312 C 8.0625 -5.726562 5.863281 -1.925781 2.566406 -1.925781 C 1.648438 -1.925781 1.101562 -2.613281 1.101562 -3.847656 C 1.101562 -4.671875 1.605469 -6.734375 2.613281 -9.851562 C 3.941406 -13.746094 5.269531 -17.410156 6.550781 -21.074219 L 8.933594 -28.039062 C 9.117188 -28.542969 8.84375 -29.09375 8.339844 -29.277344 C 7.835938 -29.414062 7.285156 -29.1875 7.101562 -28.683594 L 4.71875 -21.71875 C 3.390625 -17.914062 2.015625 -14.066406 0.777344 -10.445312 C -0.367188 -6.828125 -0.824219 -5.175781 -0.824219 -3.847656 C -0.824219 -1.648438 0.367188 0 2.566406 0 C 6.78125 0 9.347656 -3.894531 12.003906 -9.621094 C 12.050781 -9.757812 12.097656 -9.898438 12.097656 -10.035156 C 12.097656 -10.402344 11.867188 -10.722656 11.546875 -10.90625 Z M 11.546875 -10.90625 "/></g></g></g><g fill="#1f7980" fill-opacity="1"><g transform="translate(250.619886, 205.874986)"><g><path d="M 19.472656 -10.90625 C 19.335938 -10.949219 19.199219 -10.996094 19.058594 -10.996094 C 18.695312 -10.996094 18.371094 -10.765625 18.191406 -10.402344 C 17.457031 -7.835938 15.347656 -4.855469 12.921875 -4.855469 C 12.097656 -4.855469 11.316406 -5.175781 10.765625 -5.773438 C 12.417969 -8.246094 14.296875 -13.378906 14.296875 -16.539062 C 14.296875 -19.378906 13.332031 -21.761719 10.445312 -21.761719 C 8.75 -21.761719 7.285156 -20.847656 6.003906 -19.519531 L 6.367188 -20.480469 C 6.597656 -21.074219 6.140625 -21.761719 5.453125 -21.761719 C 5.039062 -21.761719 4.671875 -21.535156 4.535156 -21.121094 L 4.261719 -20.390625 C 3.710938 -18.96875 1.054688 -11.59375 -1.558594 -4.445312 L -6.6875 9.898438 C -6.917969 10.492188 -6.460938 11.179688 -5.773438 11.179688 C -5.359375 11.179688 -4.992188 10.949219 -4.855469 10.539062 C -4.398438 9.164062 -2.519531 3.941406 -0.457031 -1.785156 C 0.046875 -0.550781 1.101562 0.046875 2.839844 0.136719 C 5.5 0.230469 7.835938 -1.605469 9.714844 -4.125 C 10.402344 -3.4375 11.546875 -2.933594 12.875 -2.933594 C 16.035156 -2.933594 19.015625 -6.277344 19.976562 -9.667969 C 20.023438 -9.804688 20.066406 -9.898438 20.066406 -10.035156 C 20.066406 -10.402344 19.839844 -10.765625 19.472656 -10.90625 Z M 9.347656 -10.996094 C 8.933594 -10.996094 8.523438 -10.722656 8.429688 -10.261719 C 8.0625 -8.980469 7.925781 -7.191406 8.523438 -5.820312 C 6.964844 -3.4375 4.992188 -1.742188 2.886719 -1.785156 C 1.605469 -1.832031 1.144531 -2.566406 1.144531 -4.167969 C 1.144531 -5.679688 1.464844 -6.277344 2.152344 -8.203125 C 3.984375 -12.828125 6.78125 -19.839844 10.539062 -19.839844 C 11.914062 -19.839844 12.324219 -18.554688 12.324219 -16.632812 C 12.324219 -14.339844 11.410156 -11.363281 10.078125 -8.566406 C 10.125 -8.933594 10.171875 -9.347656 10.308594 -9.757812 C 10.445312 -10.402344 9.988281 -10.996094 9.347656 -10.996094 Z M 9.347656 -10.996094 "/></g></g></g><g fill="#1f7980" fill-opacity="1"><g transform="translate(268.027138, 205.874986)"><g><path d="M 16.585938 -10.90625 C 16.082031 -11.085938 15.53125 -10.859375 15.304688 -10.402344 C 12.738281 -4.488281 9.804688 -1.832031 6.046875 -1.925781 C 3.300781 -2.015625 1.832031 -3.621094 1.925781 -6.230469 C 1.96875 -7.191406 2.109375 -8.0625 2.429688 -9.253906 C 7.515625 -10.492188 14.339844 -13.425781 14.339844 -18.28125 C 14.339844 -20.480469 12.738281 -21.671875 10.445312 -21.671875 C 5.039062 -21.671875 0.273438 -12.140625 0 -6.277344 C -0.0898438 -2.519531 2.199219 0 6.003906 0 C 10.628906 0 14.113281 -3.023438 17.089844 -9.621094 C 17.136719 -9.757812 17.179688 -9.851562 17.179688 -9.988281 C 17.179688 -10.355469 16.953125 -10.722656 16.585938 -10.90625 Z M 3.160156 -11.453125 C 4.628906 -14.980469 7.285156 -19.746094 10.445312 -19.746094 C 11.453125 -19.746094 12.417969 -19.519531 12.417969 -18.28125 C 12.417969 -14.890625 6.964844 -12.644531 3.160156 -11.453125 Z M 3.160156 -11.453125 "/></g></g></g><g fill="#1f7980" fill-opacity="1"><g transform="translate(282.548453, 205.874986)"><g><path d="M 18.921875 -10.90625 C 18.785156 -10.949219 18.648438 -10.996094 18.511719 -10.996094 C 18.144531 -10.996094 17.824219 -10.765625 17.640625 -10.402344 C 15.027344 -4.488281 13.285156 -1.925781 11.042969 -1.925781 C 10.035156 -1.925781 9.667969 -2.703125 9.667969 -3.847656 C 9.714844 -4.628906 9.804688 -5.40625 10.078125 -6.367188 C 10.355469 -7.515625 12.554688 -14.066406 13.148438 -15.578125 C 13.332031 -16.128906 13.105469 -16.722656 12.601562 -16.90625 C 12.097656 -17.089844 11.5 -17.273438 10.859375 -17.457031 C 9.53125 -17.914062 7.972656 -18.417969 6.6875 -19.058594 C 7.238281 -20.847656 7.421875 -21.257812 7.421875 -21.992188 C 7.421875 -23.824219 6.414062 -25.015625 4.765625 -25.015625 C 3.300781 -25.015625 1.96875 -23.917969 1.96875 -22.039062 C 1.96875 -20.34375 2.933594 -19.152344 4.308594 -18.191406 L 3.757812 -16.816406 L 0.0898438 -8.84375 C 0.046875 -8.707031 0 -8.566406 0 -8.429688 C 0 -8.0625 0.230469 -7.742188 0.550781 -7.558594 C 0.6875 -7.515625 0.824219 -7.46875 1.007812 -7.46875 C 1.328125 -7.46875 1.648438 -7.652344 1.832031 -8.019531 C 5.5 -16.035156 5.820312 -16.675781 6.003906 -17.226562 C 7.011719 -16.722656 7.515625 -16.539062 10.996094 -15.394531 C 10.582031 -14.386719 8.566406 -8.292969 8.203125 -6.828125 C 7.878906 -5.679688 7.742188 -4.765625 7.742188 -3.847656 C 7.742188 -1.605469 8.84375 0 10.996094 0 L 11.042969 0 C 14.15625 0 16.449219 -2.792969 19.425781 -9.621094 C 19.472656 -9.757812 19.519531 -9.898438 19.519531 -10.035156 C 19.519531 -10.402344 19.289062 -10.722656 18.921875 -10.90625 Z M 5.5 -22.039062 C 5.5 -21.578125 5.222656 -20.753906 4.992188 -20.113281 C 4.308594 -20.664062 3.894531 -21.488281 3.894531 -22.222656 C 3.894531 -22.726562 4.167969 -23.09375 4.765625 -23.09375 C 5.132812 -23.09375 5.5 -22.816406 5.5 -22.039062 Z M 5.5 -22.039062 "/></g></g></g><g fill="#c48383" fill-opacity="1"><g transform="translate(78.880516, 228.975938)"><g><path d="M 6.078125 0.09375 C 5.078125 0.09375 4.164062 -0.128906 3.34375 -0.578125 C 2.53125 -1.035156 1.894531 -1.65625 1.4375 -2.4375 C 0.976562 -3.21875 0.75 -4.09375 0.75 -5.0625 C 0.75 -6.039062 0.976562 -6.921875 1.4375 -7.703125 C 1.894531 -8.484375 2.53125 -9.097656 3.34375 -9.546875 C 4.164062 -9.992188 5.078125 -10.21875 6.078125 -10.21875 C 7.078125 -10.21875 7.976562 -9.992188 8.78125 -9.546875 C 9.59375 -9.109375 10.226562 -8.492188 10.6875 -7.703125 C 11.15625 -6.921875 11.390625 -6.039062 11.390625 -5.0625 C 11.390625 -4.09375 11.15625 -3.210938 10.6875 -2.421875 C 10.226562 -1.640625 9.59375 -1.023438 8.78125 -0.578125 C 7.976562 -0.128906 7.078125 0.09375 6.078125 0.09375 Z M 6.078125 -0.875 C 6.878906 -0.875 7.601562 -1.050781 8.25 -1.40625 C 8.894531 -1.769531 9.398438 -2.269531 9.765625 -2.90625 C 10.128906 -3.550781 10.3125 -4.269531 10.3125 -5.0625 C 10.3125 -5.851562 10.128906 -6.566406 9.765625 -7.203125 C 9.398438 -7.847656 8.894531 -8.351562 8.25 -8.71875 C 7.601562 -9.082031 6.878906 -9.265625 6.078125 -9.265625 C 5.273438 -9.265625 4.546875 -9.082031 3.890625 -8.71875 C 3.242188 -8.351562 2.734375 -7.847656 2.359375 -7.203125 C 1.992188 -6.566406 1.8125 -5.851562 1.8125 -5.0625 C 1.8125 -4.269531 1.992188 -3.550781 2.359375 -2.90625 C 2.734375 -2.269531 3.242188 -1.769531 3.890625 -1.40625 C 4.546875 -1.050781 5.273438 -0.875 6.078125 -0.875 Z M 6.078125 -0.875 "/></g></g></g><g fill="#c48383" fill-opacity="1"><g transform="translate(91.312723, 228.975938)"><g><path d="M 8.5625 0 L 6.25 -3.25 C 5.988281 -3.226562 5.71875 -3.21875 5.4375 -3.21875 L 2.71875 -3.21875 L 2.71875 0 L 1.65625 0 L 1.65625 -10.125 L 5.4375 -10.125 C 6.726562 -10.125 7.738281 -9.816406 8.46875 -9.203125 C 9.207031 -8.585938 9.578125 -7.738281 9.578125 -6.65625 C 9.578125 -5.863281 9.375 -5.191406 8.96875 -4.640625 C 8.570312 -4.097656 8.003906 -3.707031 7.265625 -3.46875 L 9.734375 0 Z M 5.40625 -4.125 C 6.414062 -4.125 7.179688 -4.34375 7.703125 -4.78125 C 8.234375 -5.226562 8.5 -5.851562 8.5 -6.65625 C 8.5 -7.476562 8.234375 -8.109375 7.703125 -8.546875 C 7.179688 -8.984375 6.414062 -9.203125 5.40625 -9.203125 L 2.71875 -9.203125 L 2.71875 -4.125 Z M 5.40625 -4.125 "/></g></g></g><g fill="#c48383" fill-opacity="1"><g transform="translate(102.066105, 228.975938)"><g><path d="M 8.78125 -5.0625 L 9.8125 -5.0625 L 9.8125 -1.203125 C 9.332031 -0.785156 8.769531 -0.460938 8.125 -0.234375 C 7.476562 -0.015625 6.800781 0.09375 6.09375 0.09375 C 5.082031 0.09375 4.171875 -0.128906 3.359375 -0.578125 C 2.546875 -1.023438 1.90625 -1.640625 1.4375 -2.421875 C 0.976562 -3.210938 0.75 -4.09375 0.75 -5.0625 C 0.75 -6.039062 0.976562 -6.921875 1.4375 -7.703125 C 1.90625 -8.492188 2.546875 -9.109375 3.359375 -9.546875 C 4.171875 -9.992188 5.085938 -10.21875 6.109375 -10.21875 C 6.878906 -10.21875 7.585938 -10.09375 8.234375 -9.84375 C 8.878906 -9.601562 9.425781 -9.238281 9.875 -8.75 L 9.203125 -8.078125 C 8.398438 -8.867188 7.382812 -9.265625 6.15625 -9.265625 C 5.332031 -9.265625 4.585938 -9.082031 3.921875 -8.71875 C 3.265625 -8.351562 2.75 -7.847656 2.375 -7.203125 C 2 -6.566406 1.8125 -5.851562 1.8125 -5.0625 C 1.8125 -4.269531 2 -3.554688 2.375 -2.921875 C 2.75 -2.285156 3.265625 -1.785156 3.921875 -1.421875 C 4.578125 -1.054688 5.316406 -0.875 6.140625 -0.875 C 7.179688 -0.875 8.0625 -1.132812 8.78125 -1.65625 Z M 8.78125 -5.0625 "/></g></g></g><g fill="#c48383" fill-opacity="1"><g transform="translate(113.543117, 228.975938)"><g><path d="M 8 -2.703125 L 2.359375 -2.703125 L 1.140625 0 L 0.03125 0 L 4.65625 -10.125 L 5.71875 -10.125 L 10.34375 0 L 9.21875 0 Z M 7.609375 -3.578125 L 5.1875 -9.015625 L 2.75 -3.578125 Z M 7.609375 -3.578125 "/></g></g></g><g fill="#c48383" fill-opacity="1"><g transform="translate(124.209663, 228.975938)"><g><path d="M 10.109375 -10.125 L 10.109375 0 L 9.234375 0 L 2.71875 -8.21875 L 2.71875 0 L 1.65625 0 L 1.65625 -10.125 L 2.53125 -10.125 L 9.0625 -1.90625 L 9.0625 -10.125 Z M 10.109375 -10.125 "/></g></g></g><g fill="#c48383" fill-opacity="1"><g transform="translate(136.265589, 228.975938)"><g><path d="M 1.65625 -10.125 L 2.71875 -10.125 L 2.71875 0 L 1.65625 0 Z M 1.65625 -10.125 "/></g></g></g><g fill="#c48383" fill-opacity="1"><g transform="translate(140.925978, 228.975938)"><g><path d="M 8.953125 -0.921875 L 8.953125 0 L 0.65625 0 L 0.65625 -0.734375 L 7.359375 -9.203125 L 0.75 -9.203125 L 0.75 -10.125 L 8.78125 -10.125 L 8.78125 -9.390625 L 2.078125 -0.921875 Z M 8.953125 -0.921875 "/></g></g></g><g fill="#c48383" fill-opacity="1"><g transform="translate(150.63733, 228.975938)"><g><path d="M 8 -2.703125 L 2.359375 -2.703125 L 1.140625 0 L 0.03125 0 L 4.65625 -10.125 L 5.71875 -10.125 L 10.34375 0 L 9.21875 0 Z M 7.609375 -3.578125 L 5.1875 -9.015625 L 2.75 -3.578125 Z M 7.609375 -3.578125 "/></g></g></g><g fill="#c48383" fill-opacity="1"><g transform="translate(161.303876, 228.975938)"><g><path d="M 1.65625 -10.125 L 5.765625 -10.125 C 6.835938 -10.125 7.785156 -9.910156 8.609375 -9.484375 C 9.429688 -9.054688 10.066406 -8.457031 10.515625 -7.6875 C 10.972656 -6.925781 11.203125 -6.050781 11.203125 -5.0625 C 11.203125 -4.082031 10.972656 -3.207031 10.515625 -2.4375 C 10.066406 -1.664062 9.429688 -1.066406 8.609375 -0.640625 C 7.785156 -0.210938 6.835938 0 5.765625 0 L 1.65625 0 Z M 5.71875 -0.921875 C 6.601562 -0.921875 7.378906 -1.097656 8.046875 -1.453125 C 8.710938 -1.804688 9.226562 -2.289062 9.59375 -2.90625 C 9.957031 -3.53125 10.140625 -4.25 10.140625 -5.0625 C 10.140625 -5.875 9.957031 -6.585938 9.59375 -7.203125 C 9.226562 -7.828125 8.710938 -8.316406 8.046875 -8.671875 C 7.378906 -9.023438 6.601562 -9.203125 5.71875 -9.203125 L 2.71875 -9.203125 L 2.71875 -0.921875 Z M 5.71875 -0.921875 "/></g></g></g><g fill="#c48383" fill-opacity="1"><g transform="translate(173.547943, 228.975938)"><g><path d="M 6.078125 0.09375 C 5.078125 0.09375 4.164062 -0.128906 3.34375 -0.578125 C 2.53125 -1.035156 1.894531 -1.65625 1.4375 -2.4375 C 0.976562 -3.21875 0.75 -4.09375 0.75 -5.0625 C 0.75 -6.039062 0.976562 -6.921875 1.4375 -7.703125 C 1.894531 -8.484375 2.53125 -9.097656 3.34375 -9.546875 C 4.164062 -9.992188 5.078125 -10.21875 6.078125 -10.21875 C 7.078125 -10.21875 7.976562 -9.992188 8.78125 -9.546875 C 9.59375 -9.109375 10.226562 -8.492188 10.6875 -7.703125 C 11.15625 -6.921875 11.390625 -6.039062 11.390625 -5.0625 C 11.390625 -4.09375 11.15625 -3.210938 10.6875 -2.421875 C 10.226562 -1.640625 9.59375 -1.023438 8.78125 -0.578125 C 7.976562 -0.128906 7.078125 0.09375 6.078125 0.09375 Z M 6.078125 -0.875 C 6.878906 -0.875 7.601562 -1.050781 8.25 -1.40625 C 8.894531 -1.769531 9.398438 -2.269531 9.765625 -2.90625 C 10.128906 -3.550781 10.3125 -4.269531 10.3125 -5.0625 C 10.3125 -5.851562 10.128906 -6.566406 9.765625 -7.203125 C 9.398438 -7.847656 8.894531 -8.351562 8.25 -8.71875 C 7.601562 -9.082031 6.878906 -9.265625 6.078125 -9.265625 C 5.273438 -9.265625 4.546875 -9.082031 3.890625 -8.71875 C 3.242188 -8.351562 2.734375 -7.847656 2.359375 -7.203125 C 1.992188 -6.566406 1.8125 -5.851562 1.8125 -5.0625 C 1.8125 -4.269531 1.992188 -3.550781 2.359375 -2.90625 C 2.734375 -2.269531 3.242188 -1.769531 3.890625 -1.40625 C 4.546875 -1.050781 5.273438 -0.875 6.078125 -0.875 Z M 6.078125 -0.875 "/></g></g></g><g fill="#c48383" fill-opacity="1"><g transform="translate(185.980145, 228.975938)"><g><path d="M 8.5625 0 L 6.25 -3.25 C 5.988281 -3.226562 5.71875 -3.21875 5.4375 -3.21875 L 2.71875 -3.21875 L 2.71875 0 L 1.65625 0 L 1.65625 -10.125 L 5.4375 -10.125 C 6.726562 -10.125 7.738281 -9.816406 8.46875 -9.203125 C 9.207031 -8.585938 9.578125 -7.738281 9.578125 -6.65625 C 9.578125 -5.863281 9.375 -5.191406 8.96875 -4.640625 C 8.570312 -4.097656 8.003906 -3.707031 7.265625 -3.46875 L 9.734375 0 Z M 5.40625 -4.125 C 6.414062 -4.125 7.179688 -4.34375 7.703125 -4.78125 C 8.234375 -5.226562 8.5 -5.851562 8.5 -6.65625 C 8.5 -7.476562 8.234375 -8.109375 7.703125 -8.546875 C 7.179688 -8.984375 6.414062 -9.203125 5.40625 -9.203125 L 2.71875 -9.203125 L 2.71875 -4.125 Z M 5.40625 -4.125 "/></g></g></g><g fill="#c48383" fill-opacity="1"><g transform="translate(196.733528, 228.975938)"><g/></g></g><g fill="#c48383" fill-opacity="1"><g transform="translate(200.815018, 228.975938)"><g><path d="M 1.65625 -10.125 L 5.765625 -10.125 C 6.835938 -10.125 7.785156 -9.910156 8.609375 -9.484375 C 9.429688 -9.054688 10.066406 -8.457031 10.515625 -7.6875 C 10.972656 -6.925781 11.203125 -6.050781 11.203125 -5.0625 C 11.203125 -4.082031 10.972656 -3.207031 10.515625 -2.4375 C 10.066406 -1.664062 9.429688 -1.066406 8.609375 -0.640625 C 7.785156 -0.210938 6.835938 0 5.765625 0 L 1.65625 0 Z M 5.71875 -0.921875 C 6.601562 -0.921875 7.378906 -1.097656 8.046875 -1.453125 C 8.710938 -1.804688 9.226562 -2.289062 9.59375 -2.90625 C 9.957031 -3.53125 10.140625 -4.25 10.140625 -5.0625 C 10.140625 -5.875 9.957031 -6.585938 9.59375 -7.203125 C 9.226562 -7.828125 8.710938 -8.316406 8.046875 -8.671875 C 7.378906 -9.023438 6.601562 -9.203125 5.71875 -9.203125 L 2.71875 -9.203125 L 2.71875 -0.921875 Z M 5.71875 -0.921875 "/></g></g></g><g fill="#c48383" fill-opacity="1"><g transform="translate(213.059085, 228.975938)"><g><path d="M 8.8125 -0.921875 L 8.8125 0 L 1.65625 0 L 1.65625 -10.125 L 8.59375 -10.125 L 8.59375 -9.203125 L 2.71875 -9.203125 L 2.71875 -5.59375 L 7.953125 -5.59375 L 7.953125 -4.6875 L 2.71875 -4.6875 L 2.71875 -0.921875 Z M 8.8125 -0.921875 "/></g></g></g><g fill="#c48383" fill-opacity="1"><g transform="translate(223.030951, 228.975938)"><g/></g></g><g fill="#c48383" fill-opacity="1"><g transform="translate(227.11244, 228.975938)"><g><path d="M 3.609375 -9.203125 L 0.0625 -9.203125 L 0.0625 -10.125 L 8.25 -10.125 L 8.25 -9.203125 L 4.6875 -9.203125 L 4.6875 0 L 3.609375 0 Z M 3.609375 -9.203125 "/></g></g></g><g fill="#c48383" fill-opacity="1"><g transform="translate(235.709402, 228.975938)"><g><path d="M 8 -2.703125 L 2.359375 -2.703125 L 1.140625 0 L 0.03125 0 L 4.65625 -10.125 L 5.71875 -10.125 L 10.34375 0 L 9.21875 0 Z M 7.609375 -3.578125 L 5.1875 -9.015625 L 2.75 -3.578125 Z M 7.609375 -3.578125 "/></g></g></g><g fill="#c48383" fill-opacity="1"><g transform="translate(246.375947, 228.975938)"><g><path d="M 8.5625 0 L 6.25 -3.25 C 5.988281 -3.226562 5.71875 -3.21875 5.4375 -3.21875 L 2.71875 -3.21875 L 2.71875 0 L 1.65625 0 L 1.65625 -10.125 L 5.4375 -10.125 C 6.726562 -10.125 7.738281 -9.816406 8.46875 -9.203125 C 9.207031 -8.585938 9.578125 -7.738281 9.578125 -6.65625 C 9.578125 -5.863281 9.375 -5.191406 8.96875 -4.640625 C 8.570312 -4.097656 8.003906 -3.707031 7.265625 -3.46875 L 9.734375 0 Z M 5.40625 -4.125 C 6.414062 -4.125 7.179688 -4.34375 7.703125 -4.78125 C 8.234375 -5.226562 8.5 -5.851562 8.5 -6.65625 C 8.5 -7.476562 8.234375 -8.109375 7.703125 -8.546875 C 7.179688 -8.984375 6.414062 -9.203125 5.40625 -9.203125 L 2.71875 -9.203125 L 2.71875 -4.125 Z M 5.40625 -4.125 "/></g></g></g><g fill="#c48383" fill-opacity="1"><g transform="translate(257.12933, 228.975938)"><g><path d="M 8.8125 -0.921875 L 8.8125 0 L 1.65625 0 L 1.65625 -10.125 L 8.59375 -10.125 L 8.59375 -9.203125 L 2.71875 -9.203125 L 2.71875 -5.59375 L 7.953125 -5.59375 L 7.953125 -4.6875 L 2.71875 -4.6875 L 2.71875 -0.921875 Z M 8.8125 -0.921875 "/></g></g></g><g fill="#c48383" fill-opacity="1"><g transform="translate(267.101196, 228.975938)"><g><path d="M 2.71875 -9.203125 L 2.71875 -5.21875 L 7.953125 -5.21875 L 7.953125 -4.296875 L 2.71875 -4.296875 L 2.71875 0 L 1.65625 0 L 1.65625 -10.125 L 8.59375 -10.125 L 8.59375 -9.203125 Z M 2.71875 -9.203125 "/></g></g></g><g fill="#c48383" fill-opacity="1"><g transform="translate(276.552035, 228.975938)"><g><path d="M 8 -2.703125 L 2.359375 -2.703125 L 1.140625 0 L 0.03125 0 L 4.65625 -10.125 L 5.71875 -10.125 L 10.34375 0 L 9.21875 0 Z M 7.609375 -3.578125 L 5.1875 -9.015625 L 2.75 -3.578125 Z M 7.609375 -3.578125 "/></g></g></g><g fill="#c48383" fill-opacity="1"><g transform="translate(287.218569, 228.975938)"><g><path d="M 4.4375 0.09375 C 3.6875 0.09375 2.96875 -0.0234375 2.28125 -0.265625 C 1.59375 -0.515625 1.0625 -0.835938 0.6875 -1.234375 L 1.09375 -2.046875 C 1.46875 -1.679688 1.957031 -1.382812 2.5625 -1.15625 C 3.164062 -0.9375 3.789062 -0.828125 4.4375 -0.828125 C 5.34375 -0.828125 6.019531 -0.992188 6.46875 -1.328125 C 6.925781 -1.660156 7.15625 -2.09375 7.15625 -2.625 C 7.15625 -3.019531 7.03125 -3.335938 6.78125 -3.578125 C 6.539062 -3.828125 6.242188 -4.015625 5.890625 -4.140625 C 5.535156 -4.273438 5.039062 -4.421875 4.40625 -4.578125 C 3.632812 -4.765625 3.019531 -4.945312 2.5625 -5.125 C 2.113281 -5.300781 1.726562 -5.570312 1.40625 -5.9375 C 1.082031 -6.3125 0.921875 -6.8125 0.921875 -7.4375 C 0.921875 -7.945312 1.054688 -8.410156 1.328125 -8.828125 C 1.597656 -9.253906 2.015625 -9.59375 2.578125 -9.84375 C 3.140625 -10.09375 3.832031 -10.21875 4.65625 -10.21875 C 5.238281 -10.21875 5.804688 -10.132812 6.359375 -9.96875 C 6.910156 -9.8125 7.390625 -9.59375 7.796875 -9.3125 L 7.4375 -8.46875 C 7.007812 -8.75 6.554688 -8.957031 6.078125 -9.09375 C 5.597656 -9.226562 5.125 -9.296875 4.65625 -9.296875 C 3.769531 -9.296875 3.101562 -9.125 2.65625 -8.78125 C 2.207031 -8.445312 1.984375 -8.007812 1.984375 -7.46875 C 1.984375 -7.0625 2.101562 -6.734375 2.34375 -6.484375 C 2.59375 -6.242188 2.898438 -6.054688 3.265625 -5.921875 C 3.640625 -5.796875 4.144531 -5.65625 4.78125 -5.5 C 5.519531 -5.3125 6.117188 -5.128906 6.578125 -4.953125 C 7.035156 -4.773438 7.421875 -4.503906 7.734375 -4.140625 C 8.054688 -3.785156 8.21875 -3.296875 8.21875 -2.671875 C 8.21875 -2.160156 8.078125 -1.695312 7.796875 -1.28125 C 7.523438 -0.863281 7.101562 -0.53125 6.53125 -0.28125 C 5.96875 -0.03125 5.269531 0.09375 4.4375 0.09375 Z M 4.4375 0.09375 "/></g></g></g></svg>